<?xml version="1.0" encoding="utf-8"?>
<!-- Generator: Adobe Illustrator 27.3.1, SVG Export Plug-In . SVG Version: 6.00 Build 0)  -->
<svg version="1.1" id="Layer_1" xmlns="http://www.w3.org/2000/svg" xmlns:xlink="http://www.w3.org/1999/xlink" x="0px" y="0px"
	 viewBox="0 0 59 63" style="enable-background:new 0 0 59 63;" xml:space="preserve">
<style type="text/css">
	.st0{fill:#E4520D;}
</style>
<path class="st0" d="M40.2,48.7H28.9c-0.5,0-0.9-0.4-0.9-0.9s0.4-0.9,0.9-0.9h11.3c0.5,0,0.9,0.4,0.9,0.9S40.7,48.7,40.2,48.7z"/>
<path class="st0" d="M9.9,47.8c-0.5,0-0.9-0.4-0.9-0.9v-2.2c0-0.5,0.4-0.9,0.9-0.9s0.9,0.4,0.9,0.9v2.2
	C10.8,47.3,10.4,47.8,9.9,47.8z"/>
<path class="st0" d="M9.9,59.5c-0.5,0-0.9-0.4-0.9-0.9V46.8C9,46.3,9.4,46,9.9,46s0.9,0.4,0.9,0.9v11.9
	C10.8,59.2,10.4,59.5,9.9,59.5z"/>
<path class="st0" d="M9.9,62.8H1.1c-0.6,0-1.1-0.5-1.1-1.1V39.2c0-0.6,0.5-1.1,1.1-1.1h8.8c0.5,0,0.9,0.4,0.9,0.9v4.2l8.8-3.1
	c1.8-0.7,3.8-0.8,5.7-0.3l11.4,1.5c3.2,0.6,3.6,3.7,3.3,5.3v0.1L52.5,39c0.6-0.4,1.3-0.6,2-0.8c1.3-0.3,2.6,0.2,3.4,1.1
	c0.9,1,1.2,2.3,0.8,3.6c-0.3,1.2-0.9,2.2-1.7,3.2c-0.6,0.7-1.3,1.3-1.9,1.9c-0.2,0.2-0.4,0.4-0.6,0.6c-0.6,0.5-1.2,1-1.8,1.4
	l-11.1,8c-1.4,1-3.1,1.6-4.9,1.6H10.8V62C10.8,62.3,10.4,62.8,9.9,62.8z M1.9,61H9v-2.3c0-0.5,0.4-0.9,0.9-0.9h26.8
	c1.4,0,2.7-0.4,3.8-1.2l11.1-8c0.5-0.4,1.1-0.8,1.6-1.3c0.2-0.2,0.4-0.4,0.6-0.6c0.6-0.5,1.2-1.1,1.7-1.7c0.6-0.7,1.1-1.6,1.3-2.5
	c0.2-0.6,0-1.3-0.4-1.8C56,40.2,55.3,40,54.7,40c-0.5,0.1-0.9,0.3-1.4,0.5L41,48.2c-0.7,0.4-1.5,0.4-2.2-0.1c-0.6-0.5-0.9-1.2-0.8-2
	c0-0.2,0.4-2.6-1.8-3.1l-11.4-1.5h-0.1c-1.6-0.4-3.2-0.3-4.7,0.3L9.9,45.3c-0.3,0.1-0.6,0.1-0.9-0.1c-0.2-0.2-0.4-0.5-0.4-0.8V40
	H1.9V61z"/>
<path class="st0" d="M5.4,48.5c-1.7,0-3-1.4-3-3c0-1.6,1.4-3,3-3c1.7,0,3,1.4,3,3C8.4,47.2,7.1,48.5,5.4,48.5z M5.4,44.3
	c-0.6,0-1.2,0.5-1.2,1.2s0.5,1.2,1.2,1.2c0.6,0,1.2-0.5,1.2-1.2S6,44.3,5.4,44.3z"/>
<path class="st0" d="M14.9,14.4c-0.3,0-0.6-0.2-0.8-0.4c-0.3-0.4-0.1-1,0.3-1.3l9.9-6.1c0.4-0.3,1-0.1,1.3,0.3
	c0.3,0.4,0.1,1-0.3,1.3l-9.9,6.1C15.2,14.4,15.1,14.4,14.9,14.4z"/>
<path class="st0" d="M44.7,14.4c-0.2,0-0.3,0-0.5-0.1l-9.9-6.1c-0.4-0.2-0.6-0.8-0.3-1.3c0.3-0.4,0.8-0.6,1.3-0.3l9.9,6.1
	c0.4,0.3,0.6,0.8,0.3,1.3C45.3,14.4,45,14.4,44.7,14.4z"/>
<path class="st0" d="M44.7,36.7H14.9c-0.5,0-0.9-0.4-0.9-0.9V14.4H9.5c-0.4,0-0.8-0.3-0.9-0.7c-0.1-0.4,0.1-0.8,0.4-1L29.3,0.2
	c0.3-0.2,0.7-0.2,1,0l7.1,4.4V3.5c0-0.5,0.4-0.9,0.9-0.9h5.1c0.5,0,0.9,0.4,0.9,0.9v5.5l6.2,3.8c0.4,0.2,0.5,0.6,0.4,1
	c-0.1,0.4-0.5,0.7-0.9,0.7h-4.4v21.3C45.6,36.2,45.2,36.7,44.7,36.7z M15.8,34.8h28V13.6c0-0.5,0.4-0.9,0.9-0.9h2.1L43,10.2
	c-0.3-0.2-0.4-0.5-0.4-0.8V4.3h-3.3v1.9c0,0.3-0.2,0.7-0.5,0.8c-0.3,0.2-0.7,0.2-0.9,0l-8-5l-17,10.5H15c0.5,0,0.9,0.4,0.9,0.9
	L15.8,34.8L15.8,34.8z"/>
<path class="st0" d="M34.3,36.7h-9c-0.5,0-0.9-0.4-0.9-0.9V22.1c0-0.5,0.4-0.9,0.9-0.9h9c0.5,0,0.9,0.4,0.9,0.9v13.6
	C35.2,36.2,34.8,36.7,34.3,36.7z M26.3,34.8h7.1V23h-7.1V34.8z"/>
</svg>
