<?xml version="1.0" encoding="utf-8"?>
<!-- Generator: Adobe Illustrator 27.3.1, SVG Export Plug-In . SVG Version: 6.00 Build 0)  -->
<svg version="1.1" id="Layer_1" xmlns="http://www.w3.org/2000/svg" xmlns:xlink="http://www.w3.org/1999/xlink" x="0px" y="0px"
	 viewBox="0 0 60 57" style="enable-background:new 0 0 60 57;" xml:space="preserve">
<style type="text/css">
	.st0{fill:#E4520D;}
</style>
<path class="st0" d="M58.9,56.1h-58c-0.5,0-0.9-0.4-0.9-0.9v-7c0-0.5,0.4-0.9,0.9-0.9h57.9c0.5,0,0.9,0.4,0.9,0.9v7
	C59.8,55.7,59.4,56.1,58.9,56.1z M1.9,54.3H58v-5.1H1.9V54.3z"/>
<path class="st0" d="M44.1,49.1H15.7c-0.5,0-0.9-0.4-0.9-0.9V0.9c0-0.5,0.4-0.9,0.9-0.9h28.5c0.5,0,0.9,0.4,0.9,0.9v47.3
	C45.1,48.7,44.6,49.1,44.1,49.1z M16.6,47.3h26.6V1.9H16.6V47.3z"/>
<path class="st0" d="M55.1,49.1h-11c-0.5,0-0.9-0.4-0.9-0.9V12.7c0-0.5,0.4-0.9,0.9-0.9h11c0.5,0,0.9,0.4,0.9,0.9v35.5
	C56,48.7,55.6,49.1,55.1,49.1z M45.1,47.3h9.1V13.7h-9.1V47.3z"/>
<path class="st0" d="M15.7,49.1h-11c-0.5,0-0.9-0.4-0.9-0.9V12.7c0-0.5,0.4-0.9,0.9-0.9h11c0.5,0,0.9,0.4,0.9,0.9v35.5
	C16.6,48.7,16.2,49.1,15.7,49.1z M5.6,47.3h9.1V13.7H5.6V47.3z"/>
<path class="st0" d="M26.5,13.1h-5.9c-0.5,0-0.9-0.4-0.9-0.9V6.1c0-0.5,0.4-0.9,0.9-0.9h5.9c0.5,0,0.9,0.4,0.9,0.9v6.1
	C27.4,12.7,27,13.1,26.5,13.1z M21.5,11.2h4V7h-4V11.2z"/>
<path class="st0" d="M39.2,13.1h-5.9c-0.5,0-0.9-0.4-0.9-0.9V6.1c0-0.5,0.4-0.9,0.9-0.9h5.9c0.5,0,0.9,0.4,0.9,0.9v6.1
	C40.1,12.7,39.7,13.1,39.2,13.1z M34.3,11.2h4V7h-4V11.2z"/>
<path class="st0" d="M26.5,23.1h-5.9c-0.5,0-0.9-0.4-0.9-0.9v-6.1c0-0.5,0.4-0.9,0.9-0.9h5.9c0.5,0,0.9,0.4,0.9,0.9v6.1
	C27.4,22.7,27,23.1,26.5,23.1z M21.5,21.2h4V17h-4V21.2z"/>
<path class="st0" d="M39.2,23.1h-5.9c-0.5,0-0.9-0.4-0.9-0.9v-6.1c0-0.5,0.4-0.9,0.9-0.9h5.9c0.5,0,0.9,0.4,0.9,0.9v6.1
	C40.1,22.7,39.7,23.1,39.2,23.1z M34.3,21.2h4V17h-4V21.2z"/>
<path class="st0" d="M26.5,33.1h-5.9c-0.5,0-0.9-0.4-0.9-0.9v-6.1c0-0.5,0.4-0.9,0.9-0.9h5.9c0.5,0,0.9,0.4,0.9,0.9v6.1
	C27.4,32.7,27,33.1,26.5,33.1z M21.5,31.2h4V27h-4V31.2z"/>
<path class="st0" d="M39.2,33.1h-5.9c-0.5,0-0.9-0.4-0.9-0.9v-6.1c0-0.5,0.4-0.9,0.9-0.9h5.9c0.5,0,0.9,0.4,0.9,0.9v6.1
	C40.1,32.7,39.7,33.1,39.2,33.1z M34.3,31.2h4V27h-4V31.2z"/>
<path class="st0" d="M26.5,43.1h-5.9c-0.5,0-0.9-0.4-0.9-0.9v-6.1c0-0.5,0.4-0.9,0.9-0.9h5.9c0.5,0,0.9,0.4,0.9,0.9v6.1
	C27.4,42.6,27,43.1,26.5,43.1z M21.5,41.2h4V37h-4V41.2z"/>
<path class="st0" d="M39.2,43.1h-5.9c-0.5,0-0.9-0.4-0.9-0.9v-6.1c0-0.5,0.4-0.9,0.9-0.9h5.9c0.5,0,0.9,0.4,0.9,0.9v6.1
	C40.1,42.6,39.7,43.1,39.2,43.1z M34.3,41.2h4V37h-4V41.2z"/>
<path class="st0" d="M12,24.1H8.3c-0.5,0-0.9-0.4-0.9-0.9v-6.1c0-0.5,0.4-0.9,0.9-0.9H12c0.5,0,0.9,0.4,0.9,0.9v6.1
	C12.9,23.7,12.5,24.1,12,24.1z M9.3,22.2h1.8V18H9.3V22.2z"/>
<path class="st0" d="M12,34.3H8.3c-0.5,0-0.9-0.4-0.9-0.9v-6.1c0-0.5,0.4-0.9,0.9-0.9H12c0.5,0,0.9,0.4,0.9,0.9v6.1
	C12.9,33.9,12.5,34.3,12,34.3z M9.3,32.5h1.8v-4.2H9.3V32.5z"/>
<path class="st0" d="M12,44.6H8.3c-0.5,0-0.9-0.4-0.9-0.9v-6.1c0-0.5,0.4-0.9,0.9-0.9H12c0.5,0,0.9,0.4,0.9,0.9v6.1
	C12.9,44.1,12.5,44.6,12,44.6z M9.3,42.7h1.8v-4.2H9.3V42.7z"/>
<path class="st0" d="M51.4,24.1h-3.7c-0.5,0-0.9-0.4-0.9-0.9v-6.1c0-0.5,0.4-0.9,0.9-0.9h3.7c0.5,0,0.9,0.4,0.9,0.9v6.1
	C52.4,23.7,52,24.1,51.4,24.1z M48.7,22.2h1.8V18h-1.8V22.2z"/>
<path class="st0" d="M51.4,34.3h-3.7c-0.5,0-0.9-0.4-0.9-0.9v-6.1c0-0.5,0.4-0.9,0.9-0.9h3.7c0.5,0,0.9,0.4,0.9,0.9v6.1
	C52.4,33.9,52,34.3,51.4,34.3z M48.7,32.5h1.8v-4.2h-1.8V32.5z"/>
<path class="st0" d="M51.4,44.6h-3.7c-0.5,0-0.9-0.4-0.9-0.9v-6.1c0-0.5,0.4-0.9,0.9-0.9h3.7c0.5,0,0.9,0.4,0.9,0.9v6.1
	C52.4,44.1,52,44.6,51.4,44.6z M48.7,42.7h1.8v-4.2h-1.8V42.7z"/>
</svg>
