<?xml version="1.0" encoding="utf-8"?>
<!-- Generator: Adobe Illustrator 27.3.1, SVG Export Plug-In . SVG Version: 6.00 Build 0)  -->
<svg version="1.1" id="Layer_1" xmlns="http://www.w3.org/2000/svg" xmlns:xlink="http://www.w3.org/1999/xlink" x="0px" y="0px"
	 viewBox="0 0 512 512" style="enable-background:new 0 0 512 512;" xml:space="preserve">
<style type="text/css">
	.st0{fill:#E4520D;}
	.st1{fill:#FFFFFF;}
</style>
<path class="st0" d="M200,0h112c110.5,0,200,89.5,200,200v112c0,110.5-89.5,200-200,200H200C89.5,512,0,422.5,0,312V200
	C0,89.5,89.5,0,200,0z"/>
<g>
	<path class="st1" d="M139.5,453.4c22.6,0,44.3,0.4,66.1-0.1c69.1-1.7,133-47.7,156.3-112.1c24.6-67.9,5.9-144.5-47.8-189.8
		c-10.2-8.6-14.5-17.2-13-29.7c1.2-9.7-0.2-18.3-10-23.6c-12-6.5-19.1-15.7-16.6-30.5c0.5-2.7-2.9-6.1-4.4-9.1
		c-1.9,3.2-5.9,6.8-5.4,9.5c2.8,15.1-5.3,23.2-16.5,30.7c-4,2.7-8.6,7.7-9.1,12c-1.2,11.9-0.4,24-0.4,37.8c7,0,12.5-0.9,17.4,0.3
		c3.2,0.8,5.7,4.5,8.5,6.9c-3,2.1-5.8,5.2-9.2,6c-5,1.2-10.3,0.8-15.6,1c0,26.6,0,51.9,0,79.6c14.1-7.9,25.7-16,38.5-21.2
		c18.3-7.5,26.5-19.2,22.9-38.9c-0.6-3,0.6-6.2,1-9.9c39.5,26.8,62.9,108.9,39.8,150.3c-0.5-3.9-1.5-6.7-1.2-9.4
		c1.8-14.1-5.2-17.8-18-16.8c-10.6,0.8-21.4,0.7-32,0c-10.9-0.7-14.6,3.6-14.5,14.3c0.5,29.6-0.2,59.3,0.4,88.9
		c0.2,10.9-3.8,16.3-14.4,17.2c-0.7-1-1.6-1.8-1.6-2.6c-0.2-41.3-0.3-82.6-0.5-123.9c0-9.1,5.4-11.5,13.3-11.5
		c14.9,0.1,29.7,0,45.6,0c0-17.1-0.2-32.1,0.1-47c0.2-10.7-3.4-13.2-13-7.9c-24.2,13.4-48.9,26-72.6,40.2
		c-4.9,2.9-9.1,11.2-9.2,17.1c-0.8,36.4-0.4,72.9-0.4,109.3c0,13,0,26.1,0,38.7c-22.7,5.6-23.3,5.1-23.3-15.6
		c0-88.4,0-176.9,0-265.3c0-5.7,0-11.4,0-17.5c8.4-0.6,14.9-1,21.1-1.5c0-7.2,0-13.1,0-20.4c-28.1,0-55.1,0-82.5,0
		c0,6.9,0,13.1,0,20c8.6,0.6,16.6,1.2,24.8,1.8c0,100.8,0,200.5,0,300.9c-9,0.7-16.9,1.3-24.8,2
		C139.5,440.7,139.5,446.4,139.5,453.4z"/>
	<path class="st1" d="M139.5,453.4c0-7,0-12.6,0-20c7.8-0.6,15.8-1.3,24.8-2c0-100.4,0-200.1,0-300.9c-8.2-0.6-16.2-1.1-24.8-1.8
		c0-6.9,0-13,0-20c27.5,0,54.4,0,82.5,0c0,7.3,0,13.3,0,20.4c-6.2,0.4-12.7,0.9-21.1,1.5c0,6.1,0,11.8,0,17.5
		c0,88.4,0,176.9,0,265.3c0,20.7,0.6,21.2,23.3,15.6c0-12.6,0-25.7,0-38.7c0-36.4-0.4-72.9,0.4-109.3c0.1-5.9,4.4-14.2,9.2-17.1
		c23.7-14.2,48.4-26.8,72.6-40.2c9.6-5.3,13.2-2.8,13,7.9c-0.3,15-0.1,30-0.1,47c-15.9,0-30.8,0-45.6,0c-7.8,0-13.3,2.4-13.3,11.5
		c0.2,41.3,0.3,82.6,0.5,123.9c0,0.8,1,1.6,1.6,2.6c10.6-0.8,14.6-6.2,14.4-17.2c-0.6-29.6,0.1-59.3-0.4-88.9
		c-0.2-10.7,3.6-15,14.5-14.3c10.6,0.7,21.4,0.8,32,0c12.8-1,19.8,2.6,18,16.8c-0.3,2.6,0.6,5.4,1.2,9.4
		c23.1-41.3-0.2-123.5-39.8-150.3c-0.4,3.7-1.6,7-1,9.9c3.7,19.8-4.5,31.5-22.9,38.9c-12.8,5.2-24.4,13.3-38.5,21.2
		c0-27.7,0-53,0-79.6c5.3-0.3,10.7,0.2,15.6-1c3.3-0.8,6.1-3.9,9.2-6c-2.8-2.4-5.3-6.1-8.5-6.9c-5-1.2-10.4-0.3-17.4-0.3
		c0-13.8-0.8-25.9,0.4-37.8c0.5-4.3,5-9.4,9.1-12c11.2-7.4,19.3-15.6,16.5-30.7c-0.5-2.7,3.5-6.3,5.4-9.5c1.6,3.1,4.9,6.4,4.4,9.1
		c-2.5,14.8,4.6,24,16.6,30.5c9.8,5.3,11.1,13.9,10,23.6c-1.5,12.5,2.8,21.1,13,29.7c53.6,45.3,72.3,121.9,47.8,189.8
		c-23.3,64.4-87.2,110.4-156.3,112.1C183.9,453.8,162.1,453.4,139.5,453.4z"/>
</g>
</svg>
