<?xml version="1.0" encoding="utf-8"?>
<!-- Generator: Adobe Illustrator 27.3.1, SVG Export Plug-In . SVG Version: 6.00 Build 0)  -->
<svg version="1.1" width="157" height="40" id="Layer_1" xmlns="http://www.w3.org/2000/svg" xmlns:xlink="http://www.w3.org/1999/xlink" x="0px" y="0px"
	 viewBox="0 0 157 40" style="enable-background:new 0 0 157 40;" xml:space="preserve">
<style type="text/css">
	.st0{fill:#FFFFFF;}
	.st1{fill:#E4520D;}
</style>
<g id="logo_x5F_light">
	<path id="base" class="st0" d="M34.8,1.5H10.2C6.8,1.5,4,4.3,4,7.7v24.6c0,3.4,2.8,6.2,6.2,6.2h24.6c3.4,0,6.2-2.8,6.2-6.2V7.7
		C41,4.3,38.2,1.5,34.8,1.5z"/>
	<path id="logo" class="st1" d="M34.8,1.5H10.2C6.8,1.5,4,4.3,4,7.7v24.6c0,3.4,2.8,6.2,6.2,6.2h24.6c3.4,0,6.2-2.8,6.2-6.2V7.7
		C41,4.3,38.2,1.5,34.8,1.5z M32,26.6c-1.8,5.2-7.1,8.9-12.6,9.1c-1.7,0-3.5,0-5.3,0c0-0.6,0-1,0-1.6c0.6,0,1.2-0.1,2.1-0.2
		c0-8.1,0-16.2,0-24.4c-0.6,0-1.3-0.1-2.1-0.1c0-0.5,0-1,0-1.6c2.3,0,4.4,0,6.7,0c0,0.6,0,1,0,1.6c-0.5,0-1,0.1-1.7,0.1
		c0,0.5,0,0.9,0,1.4c0,7.2,0,14.4,0,21.5c0,1.6,0.1,1.7,1.8,1.2c0-1,0-2.1,0-3.2c0-3,0-5.9,0-8.8c0-0.5,0.3-1.1,0.7-1.3
		c1.9-1.1,3.9-2.2,5.8-3.3c0.8-0.4,1-0.2,1,0.6c0,1.2,0,2.5,0,3.8c-1.3,0-2.5,0-3.7,0c-0.6,0-1.1,0.2-1,0.9c0,3.4,0,6.7,0,10.1
		c0,0.1,0.1,0.1,0.1,0.2c0.8-0.1,1.2-0.5,1.1-1.4c0-2.4,0-4.8,0-7.2c0-0.8,0.3-1.2,1.1-1.1c0.8,0.1,1.7,0.1,2.6,0
		c1-0.1,1.6,0.2,1.4,1.3c0,0.2,0.1,0.4,0.1,0.7c1.8-3.4,0-10.1-3.2-12.2c0,0.3-0.1,0.6-0.1,0.8c0.3,1.6-0.4,2.6-1.8,3.2
		c-1,0.4-1.9,1.1-3.1,1.7c0-2.3,0-4.3,0-6.5c0.4,0,0.8,0,1.2-0.1c0.3-0.1,0.5-0.3,0.7-0.5c-0.2-0.2-0.4-0.5-0.7-0.5
		c-0.4-0.1-0.8,0-1.4,0c0-1.1-0.1-2.1,0-3.1c0-0.3,0.4-0.7,0.7-1c0.9-0.6,1.5-1.2,1.3-2.5c0-0.2,0.3-0.5,0.4-0.8
		c0.1,0.2,0.4,0.5,0.4,0.7c-0.2,1.2,0.4,1.9,1.3,2.5c0.8,0.4,0.9,1.1,0.8,1.9c-0.1,1,0.2,1.7,1,2.4C32.6,14.8,34,21,32,26.6z"/>
	<path id="deftspan" class="st0" d="M49.5,20.5c-1.8,0-3.8-0.2-4.7-0.3c-0.4-0.1-0.6-0.3-0.6-0.8V4.7c0-0.5,0.2-0.7,0.6-0.8
		c0.9-0.2,2.9-0.3,4.7-0.3c4.4,0,7.1,2.4,7.1,7v2.9C56.6,18.2,53.9,20.5,49.5,20.5z M52.8,10.6c0-3-1.3-3.8-3.3-3.8
		c-0.5,0-1.2,0-1.5,0v10.4c0.3,0,1,0,1.5,0c1.9,0,3.3-0.8,3.3-3.8V10.6z M68.9,20.2c-0.8,0.1-1.9,0.3-4.3,0.3
		c-2.9,0-5.3-0.7-5.3-4.7V8.3c0-4,2.6-4.7,5.4-4.7c2.4,0,3.5,0.2,4.3,0.3c0.2,0,0.3,0.2,0.3,0.4v2.1c0,0.2-0.2,0.4-0.4,0.4h-4.5
		c-1,0-1.4,0.3-1.4,1.5v2.1h5.7c0.2,0,0.4,0.2,0.4,0.4V13c0,0.2-0.2,0.4-0.4,0.4H63v2.4c0,1.1,0.4,1.5,1.4,1.5h4.5
		c0.2,0,0.4,0.2,0.4,0.4v2.1C69.3,20,69.2,20.1,68.9,20.2z M81.7,6.9h-4.5c-1,0-1.4,0.3-1.4,1.5v1.9h5.7c0.2,0,0.4,0.2,0.4,0.4v2.2
		c0,0.2-0.2,0.4-0.4,0.4h-5.7v6.5c0,0.2-0.2,0.4-0.4,0.4h-2.9c-0.2,0-0.4-0.2-0.4-0.4V8.4c0-4,2.6-4.7,5.4-4.7
		c2.4,0,3.5,0.2,4.3,0.3c0.3,0,0.4,0.2,0.4,0.4v2.1C82.1,6.7,81.9,6.9,81.7,6.9z M95.3,7h-3.6v12.9c0,0.2-0.2,0.4-0.4,0.4h-2.9
		c-0.2,0-0.4-0.2-0.4-0.4V7h-3.6C84.2,7,84,6.8,84,6.6V4.2c0-0.2,0.2-0.4,0.4-0.4h11c0.2,0,0.5,0.2,0.5,0.4v2.3
		C95.8,6.8,95.6,7,95.3,7z M102.4,20.5c-1.7,0-3.1-0.2-4.2-0.5c-0.2-0.1-0.4-0.2-0.4-0.4v-2.2c0-0.3,0.2-0.4,0.4-0.4c0,0,0,0,0.1,0
		c0.9,0.1,3.4,0.3,4.2,0.3c1.5,0,1.9-0.5,1.9-1.5c0-0.6-0.3-1-1.4-1.6l-3.1-1.8c-2.1-1.2-2.6-2.6-2.6-4.2c0-2.5,1.3-4.3,5.6-4.3
		c1.6,0,3.9,0.3,4.7,0.5c0.2,0,0.3,0.2,0.3,0.4V7c0,0.2-0.1,0.4-0.4,0.4l0,0c-0.6,0-3.2-0.2-4.7-0.2c-1.2,0-1.7,0.4-1.7,1.1
		c0,0.6,0.3,0.9,1.4,1.5l2.9,1.5c2.3,1.2,3,2.7,3,4.5C108.4,17.9,106.9,20.5,102.4,20.5z M116.4,14.5c-0.5,0-1.2,0-1.7-0.1v5.3
		c0,0.2-0.2,0.4-0.4,0.4h-2.9c-0.2,0-0.4-0.2-0.4-0.4V4.9c0-0.7,0.3-0.9,1-1c1.1-0.2,2.9-0.3,4.5-0.3c3.4,0,6.7,1.1,6.7,5.3v0.2
		C123.1,13.3,119.8,14.5,116.4,14.5z M119.3,8.9c0-1.5-1-2.2-2.9-2.2c-0.3,0-1.5,0-1.7,0.1v4.5c0.2,0,1.5,0,1.7,0
		C118.3,11.3,119.3,10.6,119.3,8.9L119.3,8.9z M136.7,20.3h-3.1c-0.2,0-0.4-0.2-0.4-0.4l-0.8-3.6h-4.6l-0.8,3.6
		c0,0.2-0.2,0.4-0.4,0.4h-3.1c-0.2,0-0.4-0.1-0.4-0.3v-0.1l3.3-13.7c0.5-2.2,2.2-2.5,3.7-2.5s3.2,0.3,3.7,2.5l3.3,13.7V20
		C137.1,20.1,136.9,20.3,136.7,20.3z M130.3,7.1c0-0.2-0.1-0.3-0.3-0.3s-0.3,0.1-0.3,0.3l-1.3,6.2h3.3L130.3,7.1z M151.2,20.3H149
		c-0.5,0-0.8-0.1-1.1-0.7l-5-8.7c-0.1-0.1-0.1-0.2-0.2-0.2c-0.1,0-0.1,0-0.1,0.2v8.9c0,0.2-0.2,0.4-0.4,0.4h-2.6
		c-0.2,0-0.4-0.2-0.4-0.4V4.6c0-0.5,0.4-0.8,0.8-0.8h2.3c0.4,0,0.6,0.2,0.9,0.7l5.2,9.1c0.1,0.1,0.1,0.2,0.2,0.2c0,0,0.1,0,0.1-0.2
		V4.2c0-0.2,0.2-0.4,0.4-0.4h2.6c0.2,0,0.4,0.2,0.4,0.4v15.2C152,19.9,151.6,20.3,151.2,20.3z"/>
	<path id="homes" class="st0" d="M106.7,36.4h-0.8c-0.2,0-0.3-0.1-0.3-0.3v-5.3H100v5.3c0,0.2-0.1,0.3-0.3,0.3h-0.8
		c-0.2,0-0.3-0.1-0.3-0.3V24.8c0-0.2,0.1-0.3,0.3-0.3h0.8c0.2,0,0.3,0.1,0.3,0.3v4.7h5.5v-4.7c0-0.2,0.1-0.3,0.3-0.3h0.8
		c0.2,0,0.3,0.1,0.3,0.3v11.3C107,36.2,106.9,36.4,106.7,36.4z M114.8,36.5c-2.6,0-4.4-1.4-4.4-5v-2.1c0-3.6,1.8-5,4.4-5
		s4.3,1.4,4.3,5v2.1C119.1,35,117.4,36.5,114.8,36.5z M117.7,29.3c0-2.7-1.1-3.7-2.9-3.7s-2.9,1-2.9,3.7v2.1c0,2.7,1.1,3.7,2.9,3.7
		c1.7,0,2.9-1,2.9-3.7V29.3z M132,36.4h-0.8c-0.2,0-0.3-0.1-0.3-0.3v-9.5l0,0l0,0l-2.3,4.7c-0.2,0.3-0.3,0.5-0.7,0.5h-0.7
		c-0.4,0-0.6-0.1-0.7-0.5l-2.3-4.7l0,0l0,0v9.5c0,0.2-0.1,0.3-0.3,0.3h-0.8c-0.2,0-0.3-0.1-0.3-0.3V24.9c0-0.3,0.2-0.5,0.5-0.5h1
		c0.3,0,0.4,0.1,0.5,0.3l2.7,5.5c0.1,0.1,0.1,0.2,0.2,0.2s0.1,0,0.2-0.2l2.7-5.5c0.1-0.2,0.2-0.3,0.5-0.3h1c0.3,0,0.5,0.2,0.5,0.5
		v11.2C132.3,36.2,132.2,36.4,132,36.4z M142.6,36.4c-0.6,0.1-2.2,0.1-3.2,0.1c-2.3,0-3.4-0.8-3.4-3v-6.2c0-2.2,1.1-3,3.4-3
		c0.9,0,2.5,0,3.2,0.1c0.1,0,0.2,0.1,0.2,0.2v0.8c0,0.1-0.1,0.2-0.2,0.2h-3.1c-1.7,0-1.9,0.4-1.9,1.6v2.3h4.9c0.2,0,0.3,0.1,0.3,0.3
		v0.6c0,0.2-0.1,0.3-0.3,0.3h-4.9v2.7c0,1.2,0.3,1.6,1.9,1.6h3.1c0.1,0,0.2,0.1,0.2,0.2V36C142.8,36.3,142.7,36.4,142.6,36.4z
		 M149,36.5c-1.1,0-1.9-0.1-2.7-0.2c-0.3,0-0.3-0.1-0.3-0.3v-0.6c0-0.2,0.1-0.3,0.3-0.3l0,0c0.7,0.1,1.9,0.1,2.7,0.1
		c1.9,0,2.5-0.8,2.5-1.9c0-0.8-0.5-1.2-1.9-2.2l-1.5-0.9c-1.4-0.9-2.3-1.7-2.3-3c0-1.9,1.4-2.9,3.9-2.9c0.9,0,2.2,0.1,2.8,0.2
		c0.2,0,0.3,0.1,0.3,0.3v0.7c0,0.2-0.1,0.3-0.3,0.3l0,0c-0.7,0-1.8-0.1-2.8-0.1c-1.6,0-2.4,0.3-2.4,1.5c0,0.7,0.5,1.2,1.7,1.9
		l1.4,0.9c1.8,1.1,2.6,1.9,2.6,3.3C153,34.9,152.1,36.5,149,36.5z"/>
	<rect id="lead" x="43" y="27.9" class="st0" width="50.3" height="5.7"/>
</g>
</svg>
